<?xml version="1.0" standalone="no"?>
<!DOCTYPE svg PUBLIC "-//W3C//DTD SVG 20010904//EN"
 "http://www.w3.org/TR/2001/REC-SVG-20010904/DTD/svg10.dtd">
<svg version="1.0" xmlns="http://www.w3.org/2000/svg"
 width="512.000000pt" height="512.000000pt" viewBox="0 0 512.000000 512.000000"
 preserveAspectRatio="xMidYMid meet">
<metadata>
Created by potrace 1.15, written by Peter Selinger 2001-2017
</metadata>
<g transform="translate(-1.000000,512.000000) scale(0.100000,-0.100000)"
fill="#000000" stroke="none">
     data-name="Layer 2"
     id="g8">
    <g
       data-name="Layer 1"
       id="g6"
       style="fill:#007589;fill-opacity:1"
       transform="matrix(5.2299641,0,0,5.1310693,-1.6494303,-0.01516425)">
      <path
         d="m 25.31,23.88 a 1,1 0 0 1 0.13,0.47 0.93,0.93 0 1 1 -0.92,-0.92 0.84,0.84 0 0 1 0.35,0.07 A 13.84,13.84 0 1 0 4.34,23.9 1.43,1.43 0 0 1 4.8,23 0.92,0.92 0 0 0 4.8,21.74 12.4,12.4 0 0 1 3.49,19.6 0.92,0.92 0 0 1 2.88,18 12.24,12.24 0 0 1 3.41,9.51 0.94,0.94 0 0 1 3.17,8.89 0.93,0.93 0 0 1 4.25,7.98 10.27,10.27 0 0 1 4.97,6.98 H 5 v 0 c 0.28,-0.35 0.59,-0.69 0.91,-1 a 12,12 0 0 1 9.7,-3.47 0.92,0.92 0 0 1 1.77,0.3 12.07,12.07 0 0 1 6.38,19.38 1,1 0 0 1 0.13,0.48 0.92,0.92 0 1 1 -0.92,-0.92 0.8,0.8 0 0 1 0.34,0.07 A 11.48,11.48 0 0 0 17.21,3.27 0.94,0.94 0 0 1 16.44,3.68 0.92,0.92 0 0 1 15.55,2.98 11.45,11.45 0 0 0 6.89,5.75 1.42,1.42 0 0 1 7.77,6.24 1,1 0 0 0 9.05,6.33 C 9.25,6.19 9.45,6.07 9.66,5.95 a 0.61,0.61 0 0 1 0,-0.14 0.92,0.92 0 0 1 0.92,-0.92 1,1 0 0 1 0.71,0.34 9.53,9.53 0 0 1 3.14,-0.52 9.65,9.65 0 0 1 6.87,2.84 8.72,8.72 0 0 1 0.64,0.71 0.92,0.92 0 0 1 1,1.43 l 0.15,0.28 v 0 0.08 a 7.19,7.19 0 0 1 0.34,0.75 v 0.07 A 9.77,9.77 0 0 1 22,20.52 1,1 0 0 1 22.13,21 a 0.92,0.92 0 1 1 -0.92,-0.93 1,1 0 0 1 0.35,0.07 9.1,9.1 0 0 0 1.68,-8.14 1.53,1.53 0 0 1 -0.87,0.54 1,1 0 0 0 -0.63,1.1 v 0.28 -0.06 0.23 c 0,0.1 0,0.2 0,0.3 a 7.36,7.36 0 0 1 -1.49,4.43 0.87,0.87 0 0 1 0.17,0.52 0.93,0.93 0 1 1 -0.93,-0.92 0.94,0.94 0 0 1 0.3,0.05 A 6.75,6.75 0 0 0 21,15.88 1.41,1.41 0 0 1 20,16 c -0.31,-0.09 -0.76,0.08 -1.08,0.62 v 0 l -0.33,0.56 a 0.93,0.93 0 0 1 0.16,0.51 0.92,0.92 0 1 1 -0.92,-0.92 1,1 0 0 1 0.3,0 l 0.26,-0.43 a 2.15,2.15 0 0 1 0.66,-0.74 1.3,1.3 0 0 1 1.1,-0.21 0.86,0.86 0 0 0 1.05,-0.63 c 0,-0.1 0,-0.25 0,-0.4 a 5.48,5.48 0 0 0 0,-0.7 1.56,1.56 0 0 1 1.04,-1.66 0.89,0.89 0 0 0 0.61,-0.43 0.67,0.67 0 0 0 0,-0.57 10.63,10.63 0 0 0 -0.46,-1 0.87,0.87 0 0 1 -0.28,0.05 A 0.93,0.93 0 0 1 21.19,9.12 0.9,0.9 0 0 1 21.39,8.55 8.24,8.24 0 0 0 20.88,8 9.16,9.16 0 0 0 11.49,5.81 v 0 A 0.93,0.93 0 0 1 10.57,6.74 0.91,0.91 0 0 1 9.92,6.47 C 9.74,6.58 9.55,6.69 9.38,6.81 A 1.85,1.85 0 0 1 8.33,7.1 1.41,1.41 0 0 1 7.33,6.62 0.91,0.91 0 0 0 6.72,6.31 0.92,0.92 0 0 0 6.08,6.52 v 0 A 12,12 0 0 0 4.76,8.2 0.93,0.93 0 0 1 5,8.84 a 0.92,0.92 0 0 1 -1.09,0.9 11.71,11.71 0 0 0 -0.49,8 0.92,0.92 0 0 1 0.91,0.92 1,1 0 0 1 -0.29,0.67 12.1,12.1 0 0 0 1.25,2 1.51,1.51 0 0 1 -0.11,2.05 0.9,0.9 0 0 0 -0.06,1.24 13.81,13.81 0 0 0 8.72,3.57 0.93,0.93 0 0 1 0.87,-0.62 0.92,0.92 0 1 1 -0.88,1.2 14.37,14.37 0 0 1 -9.09,-3.71 v 0 L 4.24,24.59 A 14.56,14.56 0 0 1 1.13,20 14.52,14.52 0 0 1 1.13,8.77 14.44,14.44 0 0 1 20,1.13 a 14.19,14.19 0 0 1 4.58,3.09 14.09,14.09 0 0 1 3.13,4.58 14.41,14.41 0 0 1 -2.4,15.08 z"
         id="path4"
         style="fill:#007589;fill-opacity:1" />
    </g>
  </g>
</svg>
